<svg viewBox="0 0 1180 620" role="img" aria-label="Phase 5 并行编排宏观流程图" xmlns="http://www.w3.org/2000/svg">
  <defs>
    <marker id="arrow-main" markerWidth="10" markerHeight="10" refX="8" refY="3" orient="auto" markerUnits="strokeWidth">
      <path d="M0,0 L8,3 L0,6 Z" fill="#334155" />
    </marker>
    <marker id="arrow-soft" markerWidth="10" markerHeight="10" refX="8" refY="3" orient="auto" markerUnits="strokeWidth">
      <path d="M0,0 L8,3 L0,6 Z" fill="#64748b" />
    </marker>
    <style>
      .bg { fill: #f8fafc; }
      .zone { fill: #ffffff; stroke-width: 2; rx: 18; }
      .zone-title { font: 700 19px sans-serif; fill: #0f172a; }
      .zone-subtitle { font: 14px sans-serif; fill: #64748b; }
      .node { fill: #ffffff; stroke: #cbd5e1; stroke-width: 1.5; rx: 10; }
      .node-text { font: 14px sans-serif; fill: #0f172a; text-anchor: middle; dominant-baseline: middle; }
      .small { font: 12px sans-serif; fill: #475569; text-anchor: middle; dominant-baseline: middle; }
      .label { font: 12px sans-serif; fill: #475569; }
      .arrow { fill: none; stroke: #334155; stroke-width: 2; marker-end: url(#arrow-main); }
      .soft-arrow { fill: none; stroke: #64748b; stroke-width: 1.8; marker-end: url(#arrow-soft); }
      .dash { stroke-dasharray: 6 6; }
      .phase { stroke: #7c3aed; }
      .entry { stroke: #2563eb; }
      .orch { stroke: #16a34a; }
      .worker { stroke: #f97316; }
      .write { stroke: #0f766e; }
      .danger { stroke: #dc2626; }
      .pill { rx: 999; stroke-width: 1.5; }
    </style>
  </defs>

  <rect class="bg" x="0" y="0" width="1180" height="620" rx="24" />

  <rect class="zone phase" x="30" y="42" width="245" height="500" rx="18" fill="#f5f3ff" />
  <text class="zone-title" x="55" y="78">Phase 3 串行对话</text>
  <text class="zone-subtitle" x="55" y="104">补齐进入 Phase 5 的门控条件</text>
  <rect class="node" x="58" y="140" width="190" height="48" />
  <text class="node-text" x="153" y="164">用户确认住宿</text>
  <rect class="node" x="58" y="218" width="190" height="48" />
  <text class="node-text" x="153" y="242">LLM 调用 set_accommodation()</text>
  <rect class="node" x="58" y="296" width="190" height="48" />
  <text class="node-text" x="153" y="320">ToolEngine 写入状态</text>
  <rect class="node" x="58" y="374" width="190" height="58" />
  <text class="node-text" x="153" y="397">PhaseRouter</text>
  <text class="small" x="153" y="416">检查 dates / skeleton / accommodation</text>
  <rect class="pill" x="73" y="462" width="160" height="44" fill="#ede9fe" stroke="#7c3aed" />
  <text class="node-text" x="153" y="484">plan.phase = 5</text>

  <path class="arrow" d="M153 188 V218" />
  <path class="arrow" d="M153 266 V296" />
  <path class="arrow" d="M153 344 V374" />
  <path class="arrow" d="M153 432 V462" />

  <rect class="zone entry" x="315" y="42" width="235" height="500" rx="18" fill="#eff6ff" />
  <text class="zone-title" x="340" y="78">入口路由</text>
  <text class="zone-subtitle" x="340" y="104">AgentLoop.run 循环顶部</text>
  <path class="arrow" d="M233 484 C270 484 278 160 315 160" />
  <polygon points="432,130 520,190 432,250 344,190" fill="#ffffff" stroke="#2563eb" stroke-width="2" />
  <text class="node-text" x="432" y="180">should_use</text>
  <text class="node-text" x="432" y="200">parallel_phase5()?</text>
  <rect class="pill" x="342" y="296" width="180" height="48" fill="#dbeafe" stroke="#2563eb" />
  <text class="node-text" x="432" y="320">Yes: 进入并行模式</text>
  <rect class="node" x="342" y="420" width="180" height="48" />
  <text class="node-text" x="432" y="444">No: LLM 逐天生成</text>
  <path class="arrow" d="M432 250 V296" />
  <path class="soft-arrow" d="M520 190 C540 190 540 444 522 444" />
  <text class="label" x="462" y="280">首次生成 + 配置开启</text>
  <text class="label" x="503" y="392">已有行程/配置关闭</text>

  <rect class="zone orch" x="590" y="42" width="350" height="500" rx="18" fill="#f0fdf4" />
  <text class="zone-title" x="615" y="78">Orchestrator</text>
  <text class="zone-subtitle" x="615" y="104">纯 Python 编排：拆、派、收、验、写</text>
  <path class="arrow" d="M522 320 C555 320 555 140 590 140" />

  <rect class="node" x="622" y="130" width="135" height="46" />
  <text class="node-text" x="690" y="153">拆骨架</text>
  <rect class="node" x="787" y="130" width="120" height="46" />
  <text class="node-text" x="847" y="153">共享前缀</text>
  <path class="arrow" d="M757 153 H787" />

  <rect class="node" x="622" y="215" width="285" height="58" />
  <text class="node-text" x="765" y="236">并行 spawn N 个 Worker</text>
  <text class="small" x="765" y="255">Semaphore 控制最大并发</text>
  <path class="arrow" d="M847 176 C847 196 765 196 765 215" />

  <rect class="node" x="622" y="322" width="120" height="46" />
  <text class="node-text" x="682" y="345">收集结果</text>
  <rect class="node" x="772" y="322" width="135" height="46" />
  <text class="node-text" x="840" y="345">全局验证</text>
  <path class="arrow" d="M742 345 H772" />

  <rect class="pill" x="622" y="424" width="132" height="48" fill="#dcfce7" stroke="#16a34a" />
  <text class="node-text" x="688" y="448">排序 + 写入</text>
  <rect class="pill" x="784" y="424" width="123" height="48" fill="#dcfce7" stroke="#16a34a" />
  <text class="node-text" x="846" y="448">汇总 + DONE</text>
  <path class="arrow" d="M840 368 C840 398 688 394 688 424" />
  <path class="arrow" d="M754 448 H784" />

  <rect class="pill" x="782" y="510" width="125" height="38" fill="#fee2e2" stroke="#dc2626" />
  <text class="small" x="845" y="529">失败率 &gt; 50% 降级</text>
  <path class="soft-arrow dash" d="M840 368 C935 396 942 510 907 529" />

  <g>
    <rect class="node worker" x="605" y="205" width="62" height="58" fill="#fff7ed" />
    <text class="small" x="636" y="226">Worker</text>
    <text class="small" x="636" y="245">Day 1</text>
    <rect class="node worker" x="683" y="205" width="62" height="58" fill="#fff7ed" />
    <text class="small" x="714" y="226">Worker</text>
    <text class="small" x="714" y="245">Day 2</text>
    <rect class="node worker" x="761" y="205" width="62" height="58" fill="#fff7ed" />
    <text class="small" x="792" y="226">Worker</text>
    <text class="small" x="792" y="245">Day 3</text>
    <rect class="node worker" x="839" y="205" width="62" height="58" fill="#fff7ed" />
    <text class="small" x="870" y="226">Worker</text>
    <text class="small" x="870" y="245">Day N</text>
  </g>
  <path class="soft-arrow dash" d="M765 273 V305 C765 314 682 314 682 322" />
  <text class="label" x="628" y="300">DayWorkerResult 回收</text>

  <rect class="zone write" x="980" y="42" width="170" height="500" rx="18" fill="#f0fdfa" />
  <text class="zone-title" x="1005" y="78">主流程出口</text>
  <text class="zone-subtitle" x="1005" y="104">状态写入后推送前端</text>
  <rect class="node" x="1008" y="170" width="114" height="58" />
  <text class="node-text" x="1065" y="191">replace_all</text>
  <text class="node-text" x="1065" y="210">daily_plans()</text>
  <rect class="node" x="1008" y="282" width="114" height="58" />
  <text class="node-text" x="1065" y="303">yield</text>
  <text class="node-text" x="1065" y="322">TEXT_DELTA</text>
  <rect class="pill" x="1008" y="392" width="114" height="48" fill="#ccfbf1" stroke="#0f766e" />
  <text class="node-text" x="1065" y="416">SSE 结束</text>
  <path class="arrow" d="M907 448 C960 448 960 199 1008 199" />
  <path class="arrow" d="M1065 228 V282" />
  <path class="arrow" d="M1065 340 V392" />
</svg>